<?xml version="1.0" encoding="UTF-8"?>
<svg width="128" height="128" viewBox="0 0 128 128" xmlns="http://www.w3.org/2000/svg">
  <defs>
    <linearGradient id="g-neon" x1="0%" y1="0%" x2="100%" y2="100%">
      <stop offset="0%" stop-color="#00e5ff"/>
      <stop offset="50%" stop-color="#ff00aa"/>
      <stop offset="100%" stop-color="#8ef511"/>
    </linearGradient>
    <filter id="f-glow" x="-50%" y="-50%" width="200%" height="200%">
      <feGaussianBlur in="SourceGraphic" stdDeviation="3" result="blur1"/>
      <feGaussianBlur in="SourceGraphic" stdDeviation="8" result="blur2"/>
      <feMerge>
        <feMergeNode in="blur2"/>
        <feMergeNode in="blur1"/>
        <feMergeNode in="SourceGraphic"/>
      </feMerge>
    </filter>
    <clipPath id="clip-hex">
      <path d="M64 8 L104 32 L104 96 L64 120 L24 96 L24 32 Z"/>
    </clipPath>
  </defs>

  <!-- 背景六边形外框 -->
  <path d="M64 8 L104 32 L104 96 L64 120 L24 96 L24 32 Z"
        fill="none" stroke="url(#g-neon)" stroke-width="4" filter="url(#f-glow)"/>

  <!-- 赛博网格 -->
  <g clip-path="url(#clip-hex)" opacity="0.25">
    <rect x="20" y="20" width="88" height="88" fill="none" stroke="#00e5ff" stroke-width="1"/>
    <g stroke="#ff00aa" stroke-width="0.8">
      <path d="M24 40 H104"/>
      <path d="M24 60 H104"/>
      <path d="M24 80 H104"/>
    </g>
    <g stroke="#8ef511" stroke-width="0.8">
      <path d="M40 32 V104"/>
      <path d="M64 24 V112"/>
      <path d="M88 32 V104"/>
    </g>
  </g>

  <!-- 闪电图形 -->
  <path d="M76 24 L56 64 L72 64 L52 104 L90 60 L72 60 Z"
        fill="url(#g-neon)" filter="url(#f-glow)" opacity="0.95"/>

  <!-- 赛博字母 G（代表 Game） -->
  <g transform="translate(0,2)">
    <path d="M64 44
             m -22 0
             a 22 22 0 1 0 44 0
             a 22 22 0 1 0 -44 0
             M 66 44 L 78 44 L 78 56"
          fill="none" stroke="url(#g-neon)" stroke-width="5" stroke-linecap="round" stroke-linejoin="round" filter="url(#f-glow)"/>
  </g>

  <!-- 装饰脉冲线 -->
  <g opacity="0.8">
    <path d="M16 18 H46" stroke="#00e5ff" stroke-width="2"/>
    <path d="M82 110 H112" stroke="#ff00aa" stroke-width="2"/>
    <path d="M12 86 H32" stroke="#8ef511" stroke-width="2"/>
  </g>
</svg>